<svg xmlns="http://www.w3.org/2000/svg" width="22" height="22" viewBox="0 0 22 22" fill="none">
  <g clip-path="url(#clip0_303_4449)">
    <path d="M18.8283 4.79417L17.5542 3.25417C17.3067 2.9425 16.9308 2.75 16.5 2.75H5.5C5.06917 2.75 4.69333 2.9425 4.43667 3.25417L3.17167 4.79417C2.90583 5.10583 2.75 5.51833 2.75 5.95833V17.4167C2.75 18.425 3.575 19.25 4.58333 19.25H17.4167C18.425 19.25 19.25 18.425 19.25 17.4167V5.95833C19.25 5.51833 19.0942 5.10583 18.8283 4.79417ZM11 16.0417L5.95833 11H9.16667V9.16667H12.8333V11H16.0417L11 16.0417ZM4.69333 4.58333L5.43583 3.66667H16.4358L17.2975 4.58333H4.69333Z" fill="black" fill-opacity="0.54"/>
  </g>
  <defs>
    <clipPath id="clip0_303_4449">
      <rect width="22" height="22" fill="white"/>
    </clipPath>
  </defs>
</svg>