<svg xmlns="http://www.w3.org/2000/svg" width="22" height="22" viewBox="0 0 22 22" fill="none">
  <path d="M17.147 6.47368H14.807L9.65 3.78947L3.8 6.83158V15.4211C2.81 15.4211 2 14.6158 2 13.6316V6.62579C2 6.15158 2.288 5.65053 2.72 5.42684L9.65 2L16.436 5.42684C16.823 5.63263 17.093 6.05316 17.147 6.47368ZM18.2 7.36842H6.5C5.51 7.36842 4.7 8.17368 4.7 9.15789V17.2105C4.7 18.1947 5.51 19 6.5 19H18.2C19.19 19 20 18.1947 20 17.2105V9.15789C20 8.17368 19.19 7.36842 18.2 7.36842ZM18.2 10.6521L12.35 13.6316L6.5 10.6521V9.15789L12.35 12.1374L18.2 9.15789V10.6521Z" fill="black" fill-opacity="0.54"/>
</svg>