<svg xmlns="http://www.w3.org/2000/svg" width="22" height="22" viewBox="0 0 22 22" fill="none">
  <path d="M18.3333 4.58334H3.66665C2.65831 4.58334 1.84248 5.40834 1.84248 6.41668L1.83331 15.5833C1.83331 16.5917 2.65831 17.4167 3.66665 17.4167H18.3333C19.3416 17.4167 20.1666 16.5917 20.1666 15.5833V6.41668C20.1666 5.40834 19.3416 4.58334 18.3333 4.58334ZM10.0833 7.33334H11.9166V9.16668H10.0833V7.33334ZM10.0833 10.0833H11.9166V11.9167H10.0833V10.0833ZM7.33331 7.33334H9.16665V9.16668H7.33331V7.33334ZM7.33331 10.0833H9.16665V11.9167H7.33331V10.0833ZM6.41665 11.9167H4.58331V10.0833H6.41665V11.9167ZM6.41665 9.16668H4.58331V7.33334H6.41665V9.16668ZM14.6666 15.5833H7.33331V13.75H14.6666V15.5833ZM14.6666 11.9167H12.8333V10.0833H14.6666V11.9167ZM14.6666 9.16668H12.8333V7.33334H14.6666V9.16668ZM17.4166 11.9167H15.5833V10.0833H17.4166V11.9167ZM17.4166 9.16668H15.5833V7.33334H17.4166V9.16668Z" fill="black" fill-opacity="0.54"/>
</svg>