<svg xmlns="http://www.w3.org/2000/svg" width="22" height="22" viewBox="0 0 22 22" fill="none">
  <path d="M14.6667 10.0833C16.1883 10.0833 17.4075 8.85501 17.4075 7.33334C17.4075 5.81168 16.1883 4.58334 14.6667 4.58334C13.145 4.58334 11.9167 5.81168 11.9167 7.33334C11.9167 8.85501 13.145 10.0833 14.6667 10.0833ZM7.33332 10.0833C8.85499 10.0833 10.0742 8.85501 10.0742 7.33334C10.0742 5.81168 8.85499 4.58334 7.33332 4.58334C5.81166 4.58334 4.58332 5.81168 4.58332 7.33334C4.58332 8.85501 5.81166 10.0833 7.33332 10.0833ZM7.33332 11.9167C5.19749 11.9167 0.916656 12.9892 0.916656 15.125V17.4167H13.75V15.125C13.75 12.9892 9.46916 11.9167 7.33332 11.9167ZM14.6667 11.9167C14.4008 11.9167 14.0983 11.935 13.7775 11.9625C14.8408 12.7325 15.5833 13.7683 15.5833 15.125V17.4167H21.0833V15.125C21.0833 12.9892 16.8025 11.9167 14.6667 11.9167Z" fill="#C84031"/>
</svg>