<svg xmlns="http://www.w3.org/2000/svg" width="32" height="32" viewBox="0 0 32 32" fill="none">
  <path d="M16.0002 12.6666C16.9168 12.6666 17.6668 11.9166 17.6668 10.9999C17.6668 10.0833 16.9168 9.33325 16.0002 9.33325C15.0835 9.33325 14.3335 10.0833 14.3335 10.9999C14.3335 11.9166 15.0835 12.6666 16.0002 12.6666ZM16.0002 14.3333C15.0835 14.3333 14.3335 15.0833 14.3335 15.9999C14.3335 16.9166 15.0835 17.6666 16.0002 17.6666C16.9168 17.6666 17.6668 16.9166 17.6668 15.9999C17.6668 15.0833 16.9168 14.3333 16.0002 14.3333ZM16.0002 19.3333C15.0835 19.3333 14.3335 20.0833 14.3335 20.9999C14.3335 21.9166 15.0835 22.6666 16.0002 22.6666C16.9168 22.6666 17.6668 21.9166 17.6668 20.9999C17.6668 20.0833 16.9168 19.3333 16.0002 19.3333Z" fill="black" fill-opacity="0.54"/>
</svg>